<svg width="32" height="32" viewBox="0 0 32 32" fill="none" xmlns="http://www.w3.org/2000/svg">
<g clip-path="url(#clip0_1_2)">
<path d="M31.8248 18.4772C31.2993 21.7996 29.781 24.8306 27.3285 27.2787C24.8759 29.7268 21.8394 31.2423 18.511 31.7668V31.7086C18.511 31.6503 18.511 31.6503 18.4526 31.5337C18.4526 31.4754 18.3942 31.3588 18.3942 31.3005C18.2774 30.8925 18.1606 30.4262 18.1022 30.0182C18.1022 29.9599 18.1022 29.9016 18.1022 29.8433C18.1022 29.7851 18.1022 29.7268 18.1022 29.7268V29.6685C18.1022 29.6102 18.1022 29.5519 18.1022 29.4936C18.1022 29.377 18.1022 29.2022 18.1022 29.0273V28.969V28.9107V28.561C18.1022 28.3861 18.1022 28.2113 18.1022 28.0364C18.1022 22.3825 22.7153 17.7778 28.3796 17.7778C28.5547 17.7778 28.7299 17.7778 28.9051 17.7778H28.9635H29.0219H29.0803C29.1971 17.7778 29.3723 17.7778 29.5474 17.8361C29.6058 17.8361 29.6642 17.8361 29.781 17.8361C29.8394 17.8361 29.8978 17.8361 29.8978 17.8361C29.9562 17.8361 30.0146 17.8361 30.073 17.8361C30.5402 17.8943 30.9489 18.0109 31.4161 18.1858C31.4745 18.1858 31.5912 18.2441 31.6496 18.2441C31.708 18.2441 31.708 18.2441 31.7664 18.3024L31.8248 18.4772Z" fill="#00997E"/>
<path opacity="0.6" d="M32 16.1457C31.708 16.0874 31.4745 16.0291 31.1825 15.9126C31.1825 15.9126 31.1241 15.9126 31.0657 15.9126C30.8321 15.8543 30.5985 15.796 30.365 15.796C30.3066 15.796 30.2482 15.796 30.1898 15.796H30.1314C30.073 15.796 29.9562 15.796 29.8978 15.796C29.8394 15.796 29.7226 15.796 29.6642 15.796C29.4891 15.796 29.3139 15.796 29.1387 15.7377C29.0803 15.7377 29.0219 15.7377 28.9635 15.7377H28.8467C28.6715 15.7377 28.438 15.7377 28.2044 15.7377C21.2555 15.7377 15.6496 21.3333 15.6496 28.2696C15.6496 28.4444 15.6496 28.6776 15.6496 28.9107V29.0273C15.6496 29.0856 15.6496 29.1439 15.6496 29.2022C15.6496 29.377 15.6496 29.5519 15.708 29.7268C15.708 29.7851 15.708 29.9016 15.708 29.9599C15.708 30.0182 15.708 30.1348 15.708 30.1931C15.708 30.3096 15.708 30.3679 15.7664 30.4845C15.8248 31.0091 16 31.592 16.1752 32.1166C12.6131 32.0583 9.28468 30.9508 6.42336 28.8525C6.42336 28.7942 6.42336 28.7359 6.42336 28.7359C6.42336 28.561 6.42336 28.3862 6.42336 28.2113C6.42336 16.2623 16.1752 6.58652 28.146 6.58652C28.3212 6.58652 28.4964 6.58652 28.6715 6.58652C28.7299 6.58652 28.7883 6.58652 28.7883 6.58652C30.9489 9.20947 32.0584 12.5902 32 16.1457Z" fill="#00997E"/>
<path opacity="0.3" d="M26.8029 4.13843C26.6862 4.13843 26.5694 4.13843 26.4526 4.13843C26.2774 4.13843 26.1022 4.13843 25.8686 4.19672C25.8102 4.19672 25.7519 4.19672 25.6935 4.19672C25.6351 4.19672 25.6351 4.19672 25.5767 4.19672C25.2263 4.19672 24.8759 4.25501 24.5256 4.3133C24.292 4.3133 24.0584 4.37158 23.7664 4.42987C23.6497 4.42987 23.4745 4.48816 23.2993 4.48816C23.1241 4.48816 22.9489 4.54645 22.7737 4.60474C22.7154 4.60474 22.657 4.60474 22.5986 4.66302C22.4818 4.66302 22.365 4.72131 22.2482 4.72131C22.1898 4.72131 22.1898 4.72131 22.1314 4.72131C22.0146 4.72131 21.8394 4.7796 21.7227 4.83789C21.6643 4.83789 21.6059 4.83789 21.5475 4.89617C21.4307 4.89617 21.3723 4.95446 21.2555 4.95446C21.1971 4.95446 21.0803 5.01275 21.0219 5.01275C20.9051 5.01275 20.7883 5.07104 20.6716 5.12933H20.6132C20.438 5.18761 20.2628 5.2459 20.0876 5.30419C19.9124 5.36248 19.7373 5.42076 19.5621 5.47905C19.4453 5.47905 19.3285 5.53734 19.2701 5.59563C19.1533 5.59563 19.0949 5.65392 18.9781 5.7122C18.8029 5.77049 18.6278 5.82878 18.4526 5.94535C18.1606 6.06193 17.8102 6.23679 17.5183 6.41166C17.1095 6.58652 16.7591 6.81967 16.3504 7.05282C16.2336 7.11111 16.1168 7.1694 16 7.28597C15.8832 7.34426 15.7081 7.46084 15.5329 7.57741C15.4161 7.6357 15.2409 7.75228 15.1241 7.81056C15.0073 7.86885 14.8905 7.98543 14.7737 8.04372C14.657 8.102 14.5402 8.21858 14.4234 8.27687C14.1314 8.45173 13.8978 8.68488 13.6059 8.85974C13.4891 8.91803 13.4307 9.03461 13.3139 9.0929C13.1387 9.20947 12.9635 9.38433 12.7883 9.5592C12.6716 9.67577 12.4964 9.79235 12.3796 9.90892C12.2628 9.96721 12.2044 10.0838 12.0876 10.2004C11.7373 10.5501 11.3869 10.8415 11.0365 11.2495C10.9197 11.3661 10.8613 11.4244 10.7446 11.541C10.6278 11.6576 10.511 11.8324 10.3942 11.949C10.219 12.1239 10.1022 12.2987 9.92703 12.4736C9.86864 12.5902 9.75185 12.6485 9.69346 12.765C9.51827 12.9982 9.2847 13.2896 9.10951 13.5811C9.05112 13.6976 8.93433 13.8142 8.87594 13.9308C8.81754 14.0474 8.70076 14.1639 8.64236 14.2805C8.58397 14.3971 8.46718 14.5137 8.40878 14.6885C8.35039 14.8634 8.2336 14.98 8.11681 15.1548C8.05842 15.2714 8.00003 15.388 7.88324 15.5046C7.64966 15.8543 7.47448 16.2623 7.2409 16.6703C7.06572 16.9617 6.94893 17.3115 6.77375 17.6029C6.71535 17.7778 6.59857 17.9526 6.54017 18.1275C6.54017 18.1858 6.48178 18.3024 6.42338 18.4189C6.36499 18.5355 6.36499 18.6521 6.30659 18.7104C6.2482 18.8852 6.18981 19.0601 6.13141 19.235C6.07302 19.4098 6.01462 19.5847 5.95623 19.7596V19.8178C5.89784 19.9344 5.89784 20.051 5.83944 20.1676C5.83944 20.2259 5.78105 20.3424 5.78105 20.4007C5.78105 20.5173 5.72265 20.5756 5.72265 20.6922C5.72265 20.7505 5.72265 20.8087 5.66426 20.867C5.66426 20.9836 5.60586 21.1585 5.54747 21.275C5.54747 21.275 5.54747 21.3333 5.54747 21.3916C5.54747 21.5082 5.48908 21.6248 5.48908 21.7413C5.48908 21.7996 5.48908 21.8579 5.43068 21.9162C5.43068 22.0911 5.37229 22.2659 5.31389 22.4408C5.31389 22.5574 5.2555 22.7322 5.2555 22.9071C5.19711 23.1403 5.19711 23.3734 5.13871 23.6648C5.08032 24.0146 5.08032 24.3643 5.02192 24.714C5.02192 24.7723 5.02192 24.7723 5.02192 24.8306C5.02192 24.8889 5.02192 24.9472 5.02192 25.0055C5.02192 25.1803 5.02192 25.3552 4.96353 25.5883C4.96353 25.7049 4.96353 25.8215 4.96353 25.9381C1.51827 23.7814 0.0584192 20.1093 2.49927e-05 16.1457C-0.0583692 11.949 1.51827 7.98543 4.37959 4.95446C4.49638 4.83789 4.61316 4.7796 4.67156 4.66302C4.72995 4.60474 4.84674 4.48816 4.96353 4.37158C8.00003 1.57377 11.9124 0 16 0H16.1752C20.146 0.0582878 23.8832 1.51548 26.8029 4.13843Z" fill="#00997E"/>
</g>
<defs>
<clipPath id="clip0_1_2">
<rect width="32" height="32" fill="white"/>
</clipPath>
</defs>
</svg>
